<svg height="512pt" viewBox="0 0 512 512" width="512pt" xmlns="http://www.w3.org/2000/svg"><path d="m437.019531 74.980469c-48.351562-48.351563-112.636719-74.980469-181.019531-74.980469-68.378906 0-132.667969 26.628906-181.019531 74.980469-48.351563 48.351562-74.980469 112.636719-74.980469 181.019531 0 68.378906 26.628906 132.667969 74.980469 181.019531 48.351562 48.351563 112.640625 74.980469 181.019531 74.980469 68.382812 0 132.667969-26.628906 181.019531-74.980469 48.351563-48.351562 74.980469-112.636719 74.980469-181.019531s-26.628906-132.667969-74.980469-181.019531zm0 0" fill="#1de8f1"/><path d="m437.019531 74.980469c-48.351562-48.351563-112.640625-74.980469-181.019531-74.980469v512c68.378906 0 132.667969-26.628906 181.019531-74.980469 48.351563-48.351562 74.980469-112.640625 74.980469-181.019531 0-68.382812-26.628906-132.667969-74.980469-181.019531zm0 0" fill="#00c7ce"/><path d="m380.214844 165.863281c-8.902344-8.898437-20.738282-13.800781-33.328125-13.800781-12.589844 0-24.425781 4.902344-33.328125 13.804688l-80.28125 80.277343-34.835938-34.832031c-8.902344-8.902344-20.738281-13.808594-33.328125-13.808594-12.589843 0-24.425781 4.902344-33.328125 13.808594-8.902344 8.902344-13.804687 20.738281-13.804687 33.324219 0 12.589843 4.902343 24.425781 13.804687 33.328125l68.164063 68.167968c8.902343 8.902344 20.738281 13.804688 33.328125 13.804688s24.425781-4.902344 33.328125-13.804688l113.609375-113.609374c18.378906-18.375 18.378906-48.277344 0-66.660157zm0 0" fill="#e7f0ef"/><path d="m380.214844 165.863281c-8.902344-8.898437-20.738282-13.800781-33.328125-13.800781-12.589844 0-24.425781 4.902344-33.328125 13.804688l-57.558594 57.558593v130.6875c3.84375-2.121093 7.414062-4.789062 10.605469-7.980469l113.609375-113.609374c18.378906-18.375 18.378906-48.277344 0-66.660157zm0 0" fill="#c5e1e6"/></svg>